<?xml version="1.0" encoding="UTF-8"?>
<svg id="Capa_1" xmlns="http://www.w3.org/2000/svg" version="1.1" viewBox="0 0 1000 340.82">
  <!-- Generator: Adobe Illustrator 29.6.1, SVG Export Plug-In . SVG Version: 2.1.1 Build 9)  -->
  <defs>
    <style>
      .st0 {
        fill: #fff;
      }

      .st1 {
        fill: #f18918;
      }
    </style>
  </defs>
  <path class="st0" d="M465.28,93.45c-12.27-8.05-27.24-12.07-44.9-12.07-13.6,0-26.42,2.35-38.45,7.03-12.04,4.69-22.43,11.57-31.19,20.63-2.68,2.77-5.09,5.74-7.24,8.91h-1.2v-32.82h-66.12v251.82h68.46v-148.89c0-10.63,1.99-19.61,5.98-26.96,3.99-7.35,9.57-12.85,16.77-16.53,7.19-3.67,15.24-5.51,24.15-5.51,13.28,0,23.84,4.07,31.65,12.19,7.81,8.13,11.72,20.24,11.72,36.34v149.36h68.46v-164.13c0-17.35-3.28-32.9-9.85-46.66-6.57-13.75-15.98-24.66-28.25-32.71Z"/>
  <polygon class="st0" points="533.13 336.83 601.59 336.83 601.59 83.58 533.13 126.3 533.13 336.83"/>
  <path class="st0" d="M781.63,276.34c-2.5,1.41-5.43,2.54-8.79,3.4-3.36.86-6.84,1.29-10.43,1.29-7.66,0-14.19-2.42-19.58-7.27-5.39-4.85-8.09-12.82-8.09-23.92v-108.79h50.36l-21.19-56.04h-29.17V.22l-68.46,43.01v41.79h-41.74v56.04h41.74v111.61c0,25.79,7.39,46.9,22.16,63.31,14.77,16.41,36.85,24.62,66.24,24.62,9.22,0,18.05-.9,26.49-2.7,8.44-1.8,16.1-4.34,22.98-7.62l-22.51-53.93Z"/>
  <path class="st0" d="M179,234.13c0,10.63-1.99,19.61-5.98,26.96-3.99,7.35-9.57,12.85-16.77,16.53-7.19,3.67-15.24,5.51-24.15,5.51-13.28,0-23.84-4.07-31.65-12.19-7.81-8.13-11.72-20.25-11.72-36.34v-94.84s2.69-30.65-22.87-54.51c-16.88-15.76-41.7-22.36-41.7-22.36L0,120.57s12.07,3.68,17.57,13.68c2.23,4.06,2.59,10.88,2.59,17.74h.1v97.38c0,17.35,3.28,32.9,9.85,46.66,6.56,13.75,15.98,24.66,28.25,32.71,12.27,8.05,27.24,12.07,44.9,12.07,13.6,0,26.42-2.35,38.45-7.03,12.04-4.69,22.43-11.57,31.18-20.63,2.67-2.77,5.05-5.75,7.19-8.91h1.25v32.82h66.12V85.25h-68.46v148.89Z"/>
  <polygon class="st0" points="930.2 84.82 890.3 190.24 854.43 84.82 784.24 84.82 859.67 262.8 828.17 340.82 892.12 340.82 1000 84.82 930.2 84.82"/>
  <polygon class="st1" points="601.08 .22 533.13 .22 533.13 83.69 601.08 40.98 601.08 .22"/>
</svg>